<svg width="16" height="16" viewBox="0 0 16 16" fill="none" xmlns="http://www.w3.org/2000/svg">
<path d="M7.99968 11.3333C7.83127 11.3336 7.66452 11.3002 7.50924 11.235C7.35396 11.1699 7.2133 11.0742 7.09556 10.9538L2.56315 6.35971C2.41553 6.20932 2.33289 6.00696 2.33301 5.79623C2.33313 5.58549 2.41601 5.38323 2.56381 5.23301C2.63645 5.15916 2.72308 5.10052 2.81864 5.06052C2.91419 5.02051 3.01676 4.99994 3.12035 5C3.22394 5.00006 3.32648 5.02076 3.42199 5.06088C3.5175 5.101 3.60406 5.15974 3.67662 5.23368L7.99968 9.61585L12.3227 5.23368C12.3953 5.15978 12.4819 5.10106 12.5774 5.06097C12.6729 5.02087 12.7754 5.00018 12.879 5.00012C12.9826 5.00006 13.0851 5.02062 13.1807 5.0606C13.2762 5.10059 13.3629 5.1592 13.4356 5.23301C13.5833 5.38323 13.6662 5.58549 13.6664 5.79622C13.6665 6.00695 13.5838 6.20931 13.4362 6.3597L8.90396 10.9538C8.78618 11.0742 8.64549 11.1698 8.49019 11.235C8.33488 11.3002 8.16811 11.3336 7.99968 11.3333Z" fill="#FAFAFA"/>
</svg>
