<svg width="16" height="16" viewBox="0 0 16 16" fill="none" xmlns="http://www.w3.org/2000/svg">
<path fill-rule="evenodd" clip-rule="evenodd" d="M4.66667 2.00008C4.66667 1.2637 5.26362 0.666748 6 0.666748H10C10.7364 0.666748 11.3333 1.2637 11.3333 2.00008H12C12.5304 2.00008 13.0391 2.2108 13.4142 2.58587C13.7893 2.96094 14 3.46965 14 4.00008V13.3334C14 13.8638 13.7893 14.3726 13.4142 14.7476C13.0391 15.1227 12.5304 15.3334 12 15.3334H4C3.46957 15.3334 2.96086 15.1227 2.58579 14.7476C2.21071 14.3726 2 13.8638 2 13.3334V4.00008C2 3.46965 2.21071 2.96094 2.58579 2.58587C2.96086 2.21079 3.46957 2.00008 4 2.00008H4.66667ZM4.66667 3.33341H4C3.82319 3.33341 3.65362 3.40365 3.5286 3.52868C3.40357 3.6537 3.33333 3.82327 3.33333 4.00008V13.3334C3.33333 13.5102 3.40357 13.6798 3.5286 13.8048C3.65362 13.9298 3.82319 14.0001 4 14.0001H12C12.1768 14.0001 12.3464 13.9298 12.4714 13.8048C12.5964 13.6798 12.6667 13.5102 12.6667 13.3334V4.00008C12.6667 3.82327 12.5964 3.6537 12.4714 3.52868C12.3464 3.40365 12.1768 3.33341 12 3.33341H11.3333C11.3333 4.06979 10.7364 4.66675 10 4.66675H6C5.26362 4.66675 4.66667 4.06979 4.66667 3.33341ZM10 3.33341H6V2.00008H10V3.33341Z" fill="#525252"/>
</svg>
