<svg width="16" height="16" viewBox="0 0 16 16" fill="none" xmlns="http://www.w3.org/2000/svg">
<path fill-rule="evenodd" clip-rule="evenodd" d="M5.66699 0.666748C6.03518 0.666748 6.33366 0.965225 6.33366 1.33341V2.00008H7.66699V1.33341C7.66699 0.965225 7.96547 0.666748 8.33366 0.666748C8.70185 0.666748 9.00033 0.965225 9.00033 1.33341V2.00008H10.3337V1.33341C10.3337 0.965225 10.6321 0.666748 11.0003 0.666748C11.3685 0.666748 11.667 0.965225 11.667 1.33341V2.00008H12.3337C13.4382 2.00008 14.3337 2.89551 14.3337 4.00008V13.3334C14.3337 14.438 13.4382 15.3334 12.3337 15.3334H4.33366C3.96547 15.3334 3.66699 15.0349 3.66699 14.6667C3.66699 14.2986 3.96547 14.0001 4.33366 14.0001H12.3337C12.7018 14.0001 13.0003 13.7016 13.0003 13.3334V4.00008C13.0003 3.63189 12.7018 3.33341 12.3337 3.33341H11.667V4.00008C11.667 4.36827 11.3685 4.66675 11.0003 4.66675C10.6321 4.66675 10.3337 4.36827 10.3337 4.00008V3.33341H9.00033V4.00008C9.00033 4.36827 8.70185 4.66675 8.33366 4.66675C7.96547 4.66675 7.66699 4.36827 7.66699 4.00008V3.33341H6.33366V4.00008C6.33366 4.36827 6.03518 4.66675 5.66699 4.66675C5.2988 4.66675 5.00033 4.36827 5.00033 4.00008V3.33341H4.33366C3.96547 3.33341 3.66699 3.63189 3.66699 4.00008V5.66675C3.66699 6.03494 3.36852 6.33341 3.00033 6.33341C2.63214 6.33341 2.33366 6.03494 2.33366 5.66675V4.00008C2.33366 2.89551 3.22909 2.00008 4.33366 2.00008H5.00033V1.33341C5.00033 0.965225 5.2988 0.666748 5.66699 0.666748ZM4.80506 7.52868C5.06541 7.78903 5.06541 8.21114 4.80506 8.47149L3.27647 10.0001L4.80506 11.5287C5.06541 11.789 5.06541 12.2111 4.80506 12.4715C4.54471 12.7318 4.1226 12.7318 3.86225 12.4715L1.86225 10.4715C1.6019 10.2111 1.6019 9.78903 1.86225 9.52868L3.86225 7.52868C4.1226 7.26833 4.54471 7.26833 4.80506 7.52868ZM6.52892 7.52868C6.78927 7.26833 7.21138 7.26833 7.47173 7.52868L9.47173 9.52868C9.73208 9.78903 9.73208 10.2111 9.47173 10.4715L7.47173 12.4715C7.21138 12.7318 6.78927 12.7318 6.52892 12.4715C6.26857 12.2111 6.26857 11.789 6.52892 11.5287L8.05752 10.0001L6.52892 8.47149C6.26857 8.21114 6.26857 7.78903 6.52892 7.52868Z" fill="black"/>
</svg>
