<svg width="16" height="16" viewBox="0 0 16 16" fill="none" xmlns="http://www.w3.org/2000/svg">
<path fill-rule="evenodd" clip-rule="evenodd" d="M2.66699 3.33333C2.2988 3.33333 2.00033 3.63181 2.00033 4V12C2.00033 12.3682 2.2988 12.6667 2.66699 12.6667H13.3337C13.7018 12.6667 14.0003 12.3682 14.0003 12V4C14.0003 3.63181 13.7018 3.33333 13.3337 3.33333H2.66699ZM0.666992 4C0.666992 2.89543 1.56242 2 2.66699 2H13.3337C14.4382 2 15.3337 2.89543 15.3337 4V12C15.3337 13.1046 14.4382 14 13.3337 14H2.66699C1.56242 14 0.666992 13.1046 0.666992 12V4ZM3.33366 5.33333C3.33366 4.96514 3.63214 4.66667 4.00033 4.66667H4.00699C4.37518 4.66667 4.67366 4.96514 4.67366 5.33333C4.67366 5.70152 4.37518 6 4.00699 6H4.00033C3.63214 6 3.33366 5.70152 3.33366 5.33333ZM6.00033 5.33333C6.00033 4.96514 6.2988 4.66667 6.66699 4.66667H6.67366C7.04185 4.66667 7.34033 4.96514 7.34033 5.33333C7.34033 5.70152 7.04185 6 6.67366 6H6.66699C6.2988 6 6.00033 5.70152 6.00033 5.33333ZM8.66699 5.33333C8.66699 4.96514 8.96547 4.66667 9.33366 4.66667H9.34033C9.70852 4.66667 10.007 4.96514 10.007 5.33333C10.007 5.70152 9.70852 6 9.34033 6H9.33366C8.96547 6 8.66699 5.70152 8.66699 5.33333ZM11.3337 5.33333C11.3337 4.96514 11.6321 4.66667 12.0003 4.66667H12.007C12.3752 4.66667 12.6737 4.96514 12.6737 5.33333C12.6737 5.70152 12.3752 6 12.007 6H12.0003C11.6321 6 11.3337 5.70152 11.3337 5.33333ZM4.66699 8C4.66699 7.63181 4.96547 7.33333 5.33366 7.33333H5.34033C5.70852 7.33333 6.00699 7.63181 6.00699 8C6.00699 8.36819 5.70852 8.66667 5.34033 8.66667H5.33366C4.96547 8.66667 4.66699 8.36819 4.66699 8ZM7.33366 8C7.33366 7.63181 7.63213 7.33333 8.00033 7.33333H8.00699C8.37518 7.33333 8.67366 7.63181 8.67366 8C8.67366 8.36819 8.37518 8.66667 8.00699 8.66667H8.00033C7.63213 8.66667 7.33366 8.36819 7.33366 8ZM10.0003 8C10.0003 7.63181 10.2988 7.33333 10.667 7.33333H10.6737C11.0418 7.33333 11.3403 7.63181 11.3403 8C11.3403 8.36819 11.0418 8.66667 10.6737 8.66667H10.667C10.2988 8.66667 10.0003 8.36819 10.0003 8ZM4.00033 10.6667C4.00033 10.2985 4.2988 10 4.66699 10H11.3337C11.7018 10 12.0003 10.2985 12.0003 10.6667C12.0003 11.0349 11.7018 11.3333 11.3337 11.3333H4.66699C4.2988 11.3333 4.00033 11.0349 4.00033 10.6667Z" fill="#525252"/>
</svg>
