<svg width="16" height="16" viewBox="0 0 16 16" fill="none" xmlns="http://www.w3.org/2000/svg">
<path fill-rule="evenodd" clip-rule="evenodd" d="M3.74093 3.07394C4.42857 2.38631 5.3612 2 6.33366 2H12.667C13.0352 2 13.3337 2.29848 13.3337 2.66667C13.3337 3.03486 13.0352 3.33333 12.667 3.33333H12.0003V13.3333C12.0003 13.7015 11.7018 14 11.3337 14C10.9655 14 10.667 13.7015 10.667 13.3333V3.33333H9.33366V13.3333C9.33366 13.7015 9.03518 14 8.66699 14C8.2988 14 8.00033 13.7015 8.00033 13.3333V9.33333H6.33366C5.3612 9.33333 4.42857 8.94702 3.74093 8.25939C3.0533 7.57176 2.66699 6.63913 2.66699 5.66667C2.66699 4.69421 3.0533 3.76158 3.74093 3.07394ZM8.00033 8V3.33333H6.33366C5.71482 3.33333 5.12133 3.57917 4.68374 4.01675C4.24616 4.45434 4.00033 5.04783 4.00033 5.66667C4.00033 6.28551 4.24616 6.879 4.68374 7.31658C5.12133 7.75417 5.71482 8 6.33366 8H8.00033Z" fill="black"/>
</svg>
