<svg width="16" height="16" viewBox="0 0 16 16" fill="none" xmlns="http://www.w3.org/2000/svg">
<path fill-rule="evenodd" clip-rule="evenodd" d="M9.5286 2.19526C9.78895 1.93491 10.2111 1.93491 10.4714 2.19526L13.8047 5.5286C14.0651 5.78894 14.0651 6.21106 13.8047 6.4714L10.4714 9.80474C10.2111 10.0651 9.78895 10.0651 9.5286 9.80474C9.26825 9.54439 9.26825 9.12228 9.5286 8.86193L12.3905 6L9.5286 3.13807C9.26825 2.87772 9.26825 2.45561 9.5286 2.19526Z" fill="#525252"/>
<path fill-rule="evenodd" clip-rule="evenodd" d="M3.2692 6.60254C4.08186 5.78988 5.18406 5.33333 6.33333 5.33333H13.3333C13.7015 5.33333 14 5.63181 14 6C14 6.36819 13.7015 6.66667 13.3333 6.66667H6.33333C5.53768 6.66667 4.77462 6.98274 4.21201 7.54535C3.6494 8.10795 3.33333 8.87102 3.33333 9.66667C3.33333 10.0606 3.41093 10.4507 3.56169 10.8147C3.71246 11.1787 3.93344 11.5094 4.21201 11.788C4.77462 12.3506 5.53768 12.6667 6.33333 12.6667H8.66667C9.03486 12.6667 9.33333 12.9651 9.33333 13.3333C9.33333 13.7015 9.03486 14 8.66667 14H6.33333C5.18406 14 4.08186 13.5435 3.2692 12.7308C2.86682 12.3284 2.54763 11.8507 2.32986 11.325C2.11208 10.7992 2 10.2357 2 9.66667C2 8.5174 2.45655 7.41519 3.2692 6.60254Z" fill="#525252"/>
</svg>
