<svg width="16" height="16" viewBox="0 0 16 16" fill="none" xmlns="http://www.w3.org/2000/svg">
<path fill-rule="evenodd" clip-rule="evenodd" d="M3.33301 2.66659C3.1562 2.66659 2.98663 2.73682 2.8616 2.86185C2.73658 2.98687 2.66634 3.15644 2.66634 3.33325V12.6666C2.66634 12.8434 2.73658 13.013 2.8616 13.138C2.98663 13.263 3.1562 13.3333 3.33301 13.3333H3.99967V9.33325C3.99967 8.97963 4.14015 8.64049 4.3902 8.39044C4.64025 8.1404 4.97939 7.99992 5.33301 7.99992H10.6663C11.02 7.99992 11.3591 8.14039 11.6092 8.39044C11.8592 8.64049 11.9997 8.97963 11.9997 9.33325V13.3333H12.6663C12.8432 13.3333 13.0127 13.263 13.1377 13.138C13.2628 13.013 13.333 12.8434 13.333 12.6666V5.87216C13.3295 5.69774 13.2578 5.53159 13.1331 5.40941L13.1282 5.40468L10.5902 2.86654C10.468 2.74187 10.3019 2.6701 10.1274 2.66659H5.33301V4.66659H9.99967C10.3679 4.66659 10.6663 4.96506 10.6663 5.33325C10.6663 5.70144 10.3679 5.99992 9.99967 5.99992H5.33301C4.97939 5.99992 4.64025 5.85944 4.3902 5.60939C4.14015 5.35935 3.99967 5.02021 3.99967 4.66659V2.66659H3.33301ZM3.33301 1.33325C2.80257 1.33325 2.29387 1.54397 1.91879 1.91904C1.54372 2.29411 1.33301 2.80282 1.33301 3.33325V12.6666C1.33301 13.197 1.54372 13.7057 1.91879 14.0808C2.29387 14.4559 2.80257 14.6666 3.33301 14.6666H12.6663C13.1968 14.6666 13.7055 14.4559 14.0806 14.0808C14.4556 13.7057 14.6663 13.197 14.6663 12.6666V5.86659L14.6663 5.85709C14.6588 5.33082 14.4441 4.82877 14.069 4.45975L11.5399 1.93066C11.1709 1.55548 10.6688 1.34082 10.1425 1.33332L10.133 1.33325H3.33301ZM10.6663 13.3333V9.33325H5.33301V13.3333H10.6663Z" fill="#525252"/>
</svg>
