<svg width="16" height="16" viewBox="0 0 16 16" fill="none" xmlns="http://www.w3.org/2000/svg">
<path fill-rule="evenodd" clip-rule="evenodd" d="M6.4714 2.19526C6.73175 2.45561 6.73175 2.87772 6.4714 3.13807L4.27614 5.33333H9.66667C10.2357 5.33333 10.7992 5.44542 11.325 5.66319C11.8507 5.88096 12.3284 6.20015 12.7308 6.60254C13.1332 7.00492 13.4524 7.48263 13.6701 8.00837C13.8879 8.53412 14 9.0976 14 9.66667C14 10.2357 13.8879 10.7992 13.6701 11.325C13.4524 11.8507 13.1332 12.3284 12.7308 12.7308C12.3284 13.1332 11.8507 13.4524 11.325 13.6701C10.7992 13.8879 10.2357 14 9.66667 14H7.33333C6.96514 14 6.66667 13.7015 6.66667 13.3333C6.66667 12.9651 6.96514 12.6667 7.33333 12.6667H9.66667C10.0606 12.6667 10.4507 12.5891 10.8147 12.4383C11.1787 12.2875 11.5094 12.0666 11.788 11.788C12.0666 11.5094 12.2875 11.1787 12.4383 10.8147C12.5891 10.4507 12.6667 10.0606 12.6667 9.66667C12.6667 9.2727 12.5891 8.88259 12.4383 8.51862C12.2875 8.15464 12.0666 7.82392 11.788 7.54535C11.5094 7.26677 11.1787 7.04579 10.8147 6.89503C10.4507 6.74426 10.0606 6.66667 9.66667 6.66667H4.27614L6.4714 8.86193C6.73175 9.12228 6.73175 9.54439 6.4714 9.80474C6.21106 10.0651 5.78894 10.0651 5.5286 9.80474L2.19526 6.4714C1.93491 6.21106 1.93491 5.78894 2.19526 5.5286L5.5286 2.19526C5.78894 1.93491 6.21106 1.93491 6.4714 2.19526Z" fill="#525252"/>
</svg>
